<svg xmlns="http://www.w3.org/2000/svg" width="256" height="256" fill="none" viewBox="0 0 256 256">
  <path d="m64.73 252.1c-30.15 0-54.95-19.53-54.95-55.76v-133.3c0-33.68 20.83-55.19 54.95-55.19h128.4c34.13 0 54.95 21.51 54.95 55.19v130c0 35.55-24.8 59.05-54.95 59.05h-128.4z" fill="#000" opacity=".05"/>
  <path d="m63.91 6.49h128.4c32.67 0 55.77 21.12 55.77 55.42v127.7c0 33.65-21.39 56.98-53.44 56.98h-130.7c-31.43 0-55.24-19.53-55.24-55.08v-129.6c0-32.35 19.54-55.42 55.24-55.42z" fill="url(#bg_blue)"/>
  <path d="m196.6 78.04-42.18-41.53h-80.87c-9 0-14.43 8.57-14.43 16.18v51.63l8.28-6.26v-45.37c0-4.71 2.75-6.57 6.15-6.57h78.77v21.39c0 8.27 5.43 12.62 13 12.62h23.63v18.3l7.65 5.89v-26.28z" fill="url(#fg_white)"/>
  <path d="m188.3 161.7v35.37c0 5.4-2.75 7.51-6.84 7.51h-107.2c-4.09 0-6.84-3.48-6.84-7.51v-34.85l-8.28-7.15v42c0 9.62 6.12 16.42 15.12 16.42h107.9c9.68 0 14.43-8.26 14.43-15.06v-43.36l-8.28 6.63z" fill="url(#fg_white)"/>
  <path d="m42.82 125.2 25.82-17.71-0.06 0.06 0.06-0.06-0.15-0.09 0.04 12.19-16.12 10.05 16.23 10.66v11.03l-25.82-17.7v-8.43z" fill="url(#fg_silver)"/>
  <path d="m213.2 126-25.82-17.71 0.06 0.06-0.06-0.06 0.15-0.09-0.04 12.19 16.12 10.05-16.23 10.66v11.03l25.82-17.7v-8.43z" fill="url(#fg_silver)"/>
  <path d="m78.09 106.6h13.02l12.89 31.53h0.14l12.32-31.53h12.09v45.22h-8.72v-30.77h-0.13l-12.25 30.77h-6.52l-12.46-30.77h-0.14v30.77h-10.24v-45.22z" fill="url(#fg_white)"/>
  <path d="m137.6 106.6h19.01c12.6 0 21.86 7.9 21.86 22.3 0 12.45-7.68 22.92-21.79 22.92h-19.08v-45.22zm9.97 37.25h7.33c9.19 0 13.6-5.85 13.6-15.22 0-8.8-4.76-13.61-12.71-13.61h-8.22v28.83z" fill="url(#fg_white)"/>
  <defs>
    <linearGradient id="bg_blue" x1="128" x2="128" y1="6.5" y2="246.6" gradientUnits="userSpaceOnUse">
      <stop stop-color="#0A84FF" offset="0"/>
      <stop stop-color="#0055FF" offset="1"/>
    </linearGradient>
    <linearGradient id="fg_white" x1="128" x2="128" y1="36.5" y2="213.5" gradientUnits="userSpaceOnUse">
      <stop stop-color="#FFFFFF" offset="0"/>
      <stop stop-color="#F2F2F7" offset="1"/>
    </linearGradient>
    <linearGradient id="fg_silver" x1="55" x2="55" y1="107" y2="151" gradientUnits="userSpaceOnUse">
      <stop stop-color="#FFFFFF" offset="0"/>
      <stop stop-color="#D1D1D6" offset="1"/>
    </linearGradient>
  </defs>
</svg>